<svg width="17" height="18" viewBox="0 0 17 18" fill="none" xmlns="http://www.w3.org/2000/svg">
<path fill-rule="evenodd" clip-rule="evenodd" d="M6.68496 0.757224C7.64239 -0.204557 9.17449 -0.2469 10.1586 0.611693L10.3136 0.756202L10.9245 1.36715C11.1344 1.57602 11.4096 1.7048 11.7025 1.73373L11.8289 1.73996H12.7027C14.066 1.73996 15.1807 2.80602 15.2586 4.14981L15.263 4.30022V5.1732C15.263 5.47053 15.3655 5.75637 15.5505 5.98365L15.6347 6.07734L16.2457 6.68833C17.2075 7.6458 17.2505 9.17694 16.3693 10.186L16.2544 10.3093L15.6353 10.9284C15.427 11.1372 15.2982 11.4126 15.2692 11.7052L15.263 11.8314V12.7061C15.263 14.0693 14.197 15.1833 12.8531 15.2612L12.7027 15.2655H11.8289C11.5326 15.2655 11.2464 15.3685 11.019 15.5539L10.9253 15.6384L10.3151 16.2477C9.35867 17.2107 7.82643 17.2534 6.817 16.3719L6.68598 16.2493L6.07641 15.6397C5.86527 15.43 5.5895 15.3008 5.29751 15.2718L5.17152 15.2655H4.29684C2.93415 15.2655 1.81964 14.2 1.74178 12.8565L1.73743 12.7061V11.8314C1.73743 11.5356 1.63432 11.2491 1.44895 11.0221L1.36453 10.9287L0.754951 10.3182C-0.207762 9.36095 -0.250466 7.82867 0.631024 6.82025L0.746024 6.697L1.36324 6.07894C1.57315 5.86753 1.70221 5.59228 1.73119 5.29957L1.73743 5.1732V4.30022L1.74178 4.14983C1.81677 2.85595 2.85308 1.81932 4.1465 1.7443L4.29684 1.73996H5.17152C5.46773 1.73996 5.754 1.6372 5.98099 1.4526L6.0745 1.36853L6.68496 0.757224ZM9.43918 1.68346L9.4053 1.65199C8.93416 1.18298 8.18965 1.15552 7.68532 1.5689L7.58781 1.65746L6.97472 2.27138C6.53505 2.70794 5.95353 2.96897 5.33961 3.00944L5.17145 3.01497H4.29678C3.62733 3.01497 3.07676 3.52852 3.01765 4.18327L3.01239 4.30021V5.17318C3.01239 5.79299 2.78747 6.38898 2.38177 6.85485L2.26667 6.97859L1.64856 7.59755C1.17951 8.06874 1.1522 8.81307 1.56671 9.31802L1.6555 9.41567L2.26689 10.0279C2.70414 10.4662 2.9662 11.0487 3.00684 11.6631L3.01239 11.8314V12.7061C3.01239 13.3759 3.52556 13.9261 4.17991 13.9852L4.29678 13.9905H5.17145C5.79009 13.9905 6.38659 14.2156 6.85256 14.6214L6.97633 14.7365L7.59116 15.3513C8.06565 15.8232 8.81019 15.8506 9.31469 15.4361L9.41224 15.3473L10.025 14.7354C10.4642 14.2983 11.046 14.0366 11.6605 13.996L11.8288 13.9905H12.7026C13.373 13.9905 13.9235 13.4775 13.9826 12.823L13.9879 12.7061V11.8314C13.9879 11.2119 14.213 10.6143 14.6181 10.1505L14.7331 10.0274L15.3515 9.40899C15.8205 8.93727 15.8477 8.1933 15.4337 7.68853L15.3451 7.59092L14.7315 6.9773C14.2946 6.53736 14.0338 5.95643 13.9934 5.34162L13.9879 5.17318V4.30021C13.9879 3.63004 13.4744 3.07935 12.8196 3.02023L12.7026 3.01497H11.8288C11.209 3.01497 10.6123 2.79024 10.1474 2.38481L10.0239 2.26979L9.43918 1.68346ZM10.2312 11.14C10.3502 11.259 10.5117 11.327 10.6817 11.327C10.8517 11.327 11.0132 11.259 11.1322 11.14C11.1917 11.0805 11.2427 11.004 11.2767 10.9275C11.3022 10.851 11.3192 10.7754 11.3192 10.6895C11.3192 10.6045 11.3022 10.5195 11.2767 10.443C11.2427 10.3665 11.1917 10.2985 11.1322 10.239C10.8942 10.001 10.4692 10.001 10.2312 10.239C10.1717 10.2985 10.1292 10.3665 10.0952 10.443C10.0612 10.5195 10.0442 10.6045 10.0442 10.6895C10.0442 10.7754 10.0612 10.851 10.0952 10.9275C10.1292 11.004 10.1717 11.0805 10.2312 11.14ZM6.31249 6.95823C6.22749 6.95823 6.15099 6.94038 6.07448 6.90638C5.99798 6.87238 5.92148 6.83072 5.86198 6.77122C5.80248 6.70322 5.75998 6.63522 5.72598 6.55872C5.69197 6.48136 5.67497 6.40571 5.67497 6.32071C5.67497 6.23486 5.69197 6.15071 5.72598 6.0742C5.75998 5.9977 5.80248 5.9212 5.86198 5.8702C6.10849 5.63134 6.525 5.63134 6.763 5.8702C6.88201 5.98835 6.95001 6.15071 6.95001 6.32071C6.95001 6.40571 6.94151 6.48136 6.90751 6.55872C6.87351 6.63522 6.8225 6.70322 6.763 6.77122C6.7035 6.83072 6.6355 6.87238 6.559 6.90638C6.4825 6.94038 6.39749 6.95823 6.31249 6.95823ZM11.1353 5.86709C10.8863 5.61813 10.4827 5.61813 10.2337 5.86709L5.8646 10.2362L5.80288 10.3077C5.6177 10.5573 5.63827 10.9115 5.8646 11.1378C6.11357 11.3868 6.51722 11.3868 6.76619 11.1378L11.1353 6.76868L11.197 6.69718C11.3822 6.4476 11.3616 6.09343 11.1353 5.86709Z" fill="#5E5E5E"/>
</svg>
