<svg width="14" height="15" viewBox="0 0 14 15" fill="none" xmlns="http://www.w3.org/2000/svg">
<path fill-rule="evenodd" clip-rule="evenodd" d="M12.6602 4.15067C13.1357 4.53133 13.4274 5.09683 13.4771 5.71221L13.4842 5.85964V11.8073C13.4842 13.3402 12.3124 14.5871 10.8441 14.6678H9.43181C8.75689 14.6539 8.21114 14.1111 8.16146 13.429L8.15436 13.3256V11.2286C8.15436 11.0005 7.99042 10.8105 7.77113 10.7731L7.70726 10.7658H5.81167C5.58528 10.7731 5.40076 10.9418 5.37237 11.1618L5.36527 11.2286V13.319C5.36527 13.3622 5.35747 13.4136 5.35108 13.4503L5.34398 13.4657L5.33618 13.5163C5.25172 14.1404 4.75494 14.6165 4.13751 14.6612L4.04525 14.6678H2.7749C1.29164 14.6678 0.0780661 13.4657 0 11.954V5.85964C0.00638723 5.23546 0.269683 4.65602 0.709692 4.25262L5.13107 0.577961C6.03238 -0.162104 7.29564 -0.191443 8.22462 0.489946L8.33888 0.577961L12.6602 4.15067ZM12.4899 11.9247L12.4977 11.8073V5.86628C12.4899 5.55162 12.3628 5.2575 12.1428 5.0382L12.0506 4.95678L7.72145 1.37748C7.18208 0.930065 6.41561 0.908794 5.84786 1.2968L5.7407 1.37748L1.42577 4.97218C1.17808 5.16215 1.02905 5.4482 0.993564 5.74892L0.985757 5.86628V11.8073C0.985757 12.7828 1.72384 13.5823 2.66134 13.641H4.04524C4.20137 13.641 4.33622 13.5317 4.3568 13.3777L4.3717 13.2457L4.3788 13.2082V11.2286C4.3788 10.4438 4.96074 9.80571 5.70592 9.7463H7.70725C8.46592 9.7463 9.08335 10.3485 9.14083 11.1186V13.3256C9.14083 13.4796 9.24729 13.6124 9.38923 13.641H10.7085C11.6595 13.641 12.4331 12.8863 12.4899 11.9247Z" fill="#5E5E5E"/>
</svg>
