<svg width="15" height="13" viewBox="0 0 15 13" fill="none" xmlns="http://www.w3.org/2000/svg">
<path fill-rule="evenodd" clip-rule="evenodd" d="M12.1752 0.727295H2.82482C1.26658 0.727295 0.000727736 1.98363 0.000727736 3.5373L4.0489e-08 5.41517C-0.000103076 5.68152 0.196768 5.9017 0.452234 5.93654L0.523256 5.94135C1.09498 5.94135 1.51861 6.33931 1.51861 6.86438C1.51861 7.40743 1.07689 7.84592 0.523256 7.84592C0.23427 7.84592 4.0489e-08 8.08141 4.0489e-08 8.3719V10.19C4.0489e-08 11.7439 1.26536 13 2.8241 13H12.1759C13.7346 13 15 11.7439 15 10.19V8.3719C15 8.08141 14.7657 7.84592 14.4767 7.84592C13.9231 7.84592 13.4814 7.40743 13.4814 6.86438C13.4814 6.32111 13.9233 5.88212 14.4767 5.88212C14.7658 5.88212 15.0001 5.6465 15 5.35593L14.9993 3.53709C14.9993 1.98363 13.7334 0.727295 12.1752 0.727295ZM12.1751 1.77921L12.2922 1.78296C13.2207 1.84257 13.9527 2.60638 13.9527 3.53727L13.9528 4.89789L13.8967 4.91301C13.051 5.16114 12.4348 5.93856 12.4348 6.86435L12.4383 6.98423C12.4889 7.85666 13.0878 8.57784 13.8966 8.81503L13.9535 8.83007V10.19C13.9535 11.1599 13.1596 11.948 12.1759 11.948H9.31372V10.9032L9.30895 10.8318C9.2743 10.5751 9.05537 10.3772 8.79047 10.3772C8.50148 10.3772 8.26721 10.6127 8.26721 10.9032V11.948H2.82406L2.70697 11.9443C1.77814 11.8847 1.04648 11.1211 1.04648 10.19V8.82937L1.10329 8.81503C1.94894 8.56706 2.56509 7.7901 2.56509 6.86435L2.56165 6.74514C2.51141 5.87887 1.91598 5.19221 1.10538 4.9676L1.04578 4.95259L1.04721 3.53747C1.04721 2.56759 1.84156 1.77921 2.82479 1.77921H8.26721V3.12592L8.27199 3.19729C8.30664 3.45402 8.52556 3.6519 8.79047 3.6519C9.07945 3.6519 9.31372 3.41641 9.31372 3.12592V1.77921H12.1751ZM8.79047 4.58697C9.05537 4.58697 9.2743 4.78484 9.30895 5.04157L9.31372 5.11294V8.4939C9.31372 8.78439 9.07945 9.01988 8.79047 9.01988C8.52556 9.01988 8.30664 8.822 8.27199 8.56528L8.26721 8.4939V5.11294C8.26721 4.82246 8.50148 4.58697 8.79047 4.58697Z" fill="#5E5E5E"/>
</svg>
